<svg xmlns="http://www.w3.org/2000/svg" xmlns:xlink="http://www.w3.org/1999/xlink" width="2000" zoomAndPan="magnify" viewBox="0 0 1500 225" height="300" preserveAspectRatio="xMidYMid meet" version="1.0"><defs><g/><clipPath id="9c6dbf6f81"><rect x="0" width="1308" y="0" height="225"/></clipPath></defs><g transform="matrix(1, 0, 0, 1, 96, -0.000000000000008531)"><g clip-path="url(#9c6dbf6f81)"><g fill="#eeedea" fill-opacity="1"><g transform="translate(14.562775, 175.512134)"><g><path d="M 128.386719 13.65625 C 115.953125 13.65625 105.890625 11.4375 98.195312 6.996094 C 93.527344 4.382812 89.816406 1.070312 87.074219 -2.941406 C 84.191406 -7.148438 82.535156 -11.90625 82.105469 -17.203125 L 80.136719 -37.753906 L 89.957031 -40.101562 C 94.011719 -41.070312 97.578125 -43.804688 100.65625 -48.296875 C 100.742188 -48.433594 100.796875 -48.53125 100.820312 -48.589844 C 100.640625 -48.121094 100.554688 -47.535156 100.554688 -46.839844 C 100.554688 -46.074219 100.691406 -45.28125 100.964844 -44.457031 C 101.417969 -43.09375 102.171875 -41.886719 103.21875 -40.839844 C 104.265625 -39.792969 105.46875 -39.042969 106.835938 -38.585938 C 107.660156 -38.3125 108.453125 -38.175781 109.21875 -38.175781 L 108.878906 -38.175781 L 108.878906 -49.789062 L 117.089844 -41.578125 C 115.535156 -40.023438 113.679688 -38.976562 111.523438 -38.4375 C 110.523438 -38.1875 109.492188 -38.0625 108.425781 -38.0625 L 108.425781 -49.675781 L 118.910156 -44.683594 C 115.320312 -37.144531 110.460938 -31.394531 104.332031 -27.421875 C 98.121094 -23.402344 90.902344 -21.390625 82.679688 -21.390625 C 74.425781 -21.390625 67.226562 -23.292969 61.082031 -27.101562 C 55.074219 -30.824219 49.800781 -36.832031 45.269531 -45.125 L 55.460938 -50.695312 L 55.460938 -39.082031 L 54.777344 -39.082031 C 55.347656 -39.082031 55.957031 -39.175781 56.613281 -39.359375 C 57.851562 -39.714844 58.984375 -40.328125 60.015625 -41.203125 C 61.238281 -42.246094 62.140625 -43.511719 62.722656 -44.996094 C 63.128906 -46.03125 63.332031 -47.0625 63.332031 -48.085938 C 63.332031 -48.738281 63.246094 -49.320312 63.074219 -49.832031 C 63.039062 -49.9375 63.007812 -50.019531 62.976562 -50.082031 C 62.984375 -50.066406 63.003906 -50.03125 63.035156 -49.980469 C 65.125 -46.484375 67.65625 -43.792969 70.632812 -41.90625 L 70.796875 -41.804688 L 70.957031 -41.695312 C 72.933594 -40.351562 74.941406 -39.558594 76.980469 -39.324219 L 87.707031 -38.085938 L 86.089844 0.121094 L 81.070312 3.386719 C 75.488281 7.015625 69.582031 9.648438 63.347656 11.289062 C 57.351562 12.867188 49.222656 13.65625 38.957031 13.65625 C 27.867188 13.65625 17.875 11.433594 8.984375 6.984375 C 2.816406 3.902344 -1.941406 0.0351562 -5.289062 -4.613281 C -8.976562 -9.742188 -10.820312 -15.535156 -10.820312 -22.003906 C -10.820312 -32.296875 -8.835938 -57.144531 -4.863281 -96.546875 C -2.722656 -117.117188 -0.992188 -131.550781 0.324219 -139.847656 L 0.972656 -143.933594 L 4.058594 -146.6875 C 14.050781 -155.609375 28.121094 -160.074219 46.273438 -160.074219 C 59.339844 -160.074219 70.386719 -157.535156 79.414062 -152.457031 L 83.503906 -150.15625 L 91.976562 -121.808594 L 87.25 -101.953125 L 87.210938 -101.800781 C 87.167969 -101.648438 87.148438 -101.550781 87.148438 -101.503906 C 87.148438 -102.257812 86.992188 -103.042969 86.683594 -103.863281 C 86.207031 -105.125 85.457031 -106.214844 84.4375 -107.132812 C 83.570312 -107.914062 82.621094 -108.464844 81.59375 -108.792969 C 81.113281 -108.945312 80.703125 -109.023438 80.359375 -109.03125 L 80.070312 -97.421875 L 68.777344 -100.140625 L 80.769531 -149.996094 L 85.355469 -152.457031 C 89.300781 -154.574219 94.238281 -156.375 100.164062 -157.855469 C 106.078125 -159.332031 112.460938 -160.074219 119.3125 -160.074219 C 132.796875 -160.074219 143.207031 -157.5 150.539062 -152.351562 C 154.800781 -149.359375 158.160156 -145.414062 160.613281 -140.523438 C 162.8125 -136.136719 164.234375 -131.042969 164.878906 -125.246094 L 153.335938 -123.960938 L 164.84375 -125.53125 C 165.082031 -123.796875 165.429688 -120.964844 165.890625 -117.039062 C 172.824219 -57.457031 176.292969 -22.1875 176.292969 -11.226562 L 176.292969 -6.59375 L 173.101562 -3.234375 C 162.421875 8.023438 147.515625 13.65625 128.386719 13.65625 Z M 128.386719 -9.574219 C 140.859375 -9.574219 150.148438 -12.789062 156.253906 -19.222656 L 164.675781 -11.226562 L 153.0625 -11.226562 C 153.0625 -21.289062 149.648438 -55.65625 142.824219 -114.324219 C 142.378906 -118.109375 142.046875 -120.800781 141.828125 -122.394531 L 141.808594 -122.535156 L 141.792969 -122.679688 C 141.195312 -128.050781 139.664062 -131.605469 137.191406 -133.339844 C 135.769531 -134.339844 133.753906 -135.136719 131.140625 -135.734375 C 127.902344 -136.476562 123.957031 -136.84375 119.3125 -136.84375 C 114.367188 -136.84375 109.863281 -136.335938 105.796875 -135.320312 C 101.742188 -134.308594 98.585938 -133.195312 96.335938 -131.988281 L 90.84375 -142.222656 L 102.136719 -139.503906 L 89.167969 -85.578125 L 79.78125 -85.8125 C 75.410156 -85.921875 71.78125 -87.273438 68.898438 -89.867188 C 67.121094 -91.46875 65.804688 -93.398438 64.953125 -95.660156 C 64.265625 -97.484375 63.921875 -99.433594 63.921875 -101.503906 C 63.921875 -103.578125 64.203125 -105.671875 64.765625 -107.789062 L 75.988281 -104.792969 L 64.691406 -107.484375 L 68.660156 -124.15625 L 79.957031 -121.464844 L 68.828125 -118.140625 L 62.59375 -139.007812 L 73.71875 -142.335938 L 68.027344 -132.210938 C 62.535156 -135.300781 55.285156 -136.84375 46.273438 -136.84375 C 34.03125 -136.84375 25.117188 -134.351562 19.53125 -129.363281 L 11.796875 -138.023438 L 23.265625 -136.203125 C 22.011719 -128.320312 20.339844 -114.324219 18.246094 -94.21875 C 14.355469 -55.589844 12.40625 -31.519531 12.40625 -22.003906 C 12.40625 -20.527344 12.792969 -19.253906 13.566406 -18.179688 C 14.683594 -16.628906 16.617188 -15.167969 19.371094 -13.789062 C 24.996094 -10.976562 31.523438 -9.574219 38.957031 -9.574219 C 47.21875 -9.574219 53.378906 -10.105469 57.4375 -11.175781 C 61.261719 -12.179688 64.917969 -13.820312 68.410156 -16.089844 L 74.738281 -6.351562 L 63.136719 -6.84375 L 64.042969 -28.277344 L 75.648438 -27.785156 L 74.316406 -16.25 C 68.492188 -16.921875 63.011719 -19.003906 57.882812 -22.496094 L 64.417969 -32.097656 L 58.207031 -22.285156 C 52.109375 -26.144531 47.082031 -31.394531 43.117188 -38.03125 C 41.109375 -41.378906 40.101562 -44.734375 40.101562 -48.085938 C 40.101562 -49.984375 40.433594 -51.773438 41.09375 -53.460938 C 41.929688 -55.597656 43.214844 -57.40625 44.953125 -58.886719 C 47.632812 -61.167969 50.90625 -62.308594 54.777344 -62.308594 L 62.347656 -62.308594 L 65.652344 -56.265625 C 68.226562 -51.554688 70.777344 -48.417969 73.3125 -46.847656 C 75.710938 -45.359375 78.835938 -44.617188 82.679688 -44.617188 C 86.328125 -44.617188 89.335938 -45.386719 91.707031 -46.917969 C 94.15625 -48.507812 96.234375 -51.089844 97.9375 -54.667969 L 101.089844 -61.289062 L 108.425781 -61.289062 C 107.585938 -61.289062 106.738281 -61.183594 105.890625 -60.972656 C 103.886719 -60.46875 102.144531 -59.480469 100.664062 -58 L 104.066406 -61.402344 L 109.21875 -61.402344 C 110.964844 -61.402344 112.621094 -61.144531 114.179688 -60.621094 C 116.285156 -59.921875 118.105469 -58.800781 119.640625 -57.265625 C 121.179688 -55.726562 122.300781 -53.90625 123 -51.804688 C 123.519531 -50.242188 123.78125 -48.589844 123.78125 -46.839844 C 123.78125 -43.097656 122.460938 -39.207031 119.820312 -35.175781 C 113.371094 -25.757812 105.21875 -19.871094 95.359375 -17.511719 L 92.660156 -28.808594 L 104.21875 -29.914062 L 105.253906 -19.089844 C 105.355469 -17.886719 105.683594 -16.875 106.242188 -16.054688 C 106.9375 -15.039062 108.125 -14.0625 109.804688 -13.121094 C 113.90625 -10.753906 120.101562 -9.574219 128.386719 -9.574219 Z M 128.386719 -9.574219 "/></g></g></g><g fill="#eeedea" fill-opacity="1"><g transform="translate(178.378821, 175.512134)"><g><path d="M 81.476562 -125.777344 L 81.476562 -3.328125 L 77.484375 0.144531 C 72.886719 4.140625 66.976562 7.40625 59.757812 9.9375 C 52.691406 12.417969 44.339844 13.65625 34.703125 13.65625 C 24.132812 13.65625 14.984375 11.199219 7.261719 6.28125 C 2.417969 3.335938 -1.316406 -0.410156 -3.949219 -4.949219 C -6.640625 -9.585938 -7.984375 -14.777344 -7.984375 -20.527344 L -7.984375 -142.976562 L -3.992188 -146.449219 C 0.605469 -150.445312 6.515625 -153.710938 13.734375 -156.242188 C 20.800781 -158.722656 29.113281 -159.960938 38.675781 -159.960938 C 49.058594 -159.960938 58.195312 -157.59375 66.085938 -152.859375 L 66.226562 -152.777344 L 66.367188 -152.6875 C 71.226562 -149.578125 74.945312 -145.765625 77.515625 -141.25 C 80.15625 -136.613281 81.476562 -131.457031 81.476562 -125.777344 Z M 58.25 -125.777344 C 58.25 -127.355469 57.945312 -128.679688 57.332031 -129.753906 C 56.652344 -130.949219 55.492188 -132.070312 53.851562 -133.117188 L 60.109375 -142.902344 L 54.132812 -132.941406 C 49.925781 -135.46875 44.769531 -136.730469 38.675781 -136.730469 C 31.75 -136.730469 26 -135.929688 21.421875 -134.324219 C 17 -132.773438 13.609375 -130.972656 11.25 -128.921875 L 3.628906 -137.683594 L 15.242188 -137.683594 L 15.242188 -20.527344 C 15.242188 -18.945312 15.542969 -17.636719 16.140625 -16.601562 C 16.800781 -15.46875 17.996094 -14.375 19.730469 -13.3125 C 23.652344 -10.820312 28.640625 -9.574219 34.703125 -9.574219 C 41.703125 -9.574219 47.492188 -10.375 52.070312 -11.980469 C 56.492188 -13.53125 59.882812 -15.332031 62.242188 -17.382812 L 69.863281 -8.621094 L 58.25 -8.621094 Z M 58.25 -125.777344 "/></g></g></g><g fill="#eeedea" fill-opacity="1"><g transform="translate(250.217114, 175.512134)"><g><path d="M -7.984375 -20.980469 L -7.984375 -134.621094 C -7.984375 -137.226562 -7.460938 -139.722656 -6.414062 -142.109375 C -5.464844 -144.28125 -4.113281 -146.273438 -2.359375 -148.089844 C 0.339844 -150.886719 4.015625 -153.246094 8.664062 -155.167969 C 16.398438 -158.363281 25.304688 -159.960938 35.386719 -159.960938 C 41.265625 -159.960938 46.847656 -159.234375 52.125 -157.789062 C 57.9375 -156.195312 62.601562 -153.988281 66.117188 -151.175781 L 67.15625 -150.34375 L 67.980469 -149.300781 C 71.335938 -145.046875 74.40625 -140.703125 77.195312 -136.273438 C 79.808594 -132.125 85.636719 -122.527344 94.675781 -107.488281 L 84.71875 -101.503906 L 84.71875 -113.121094 C 82.894531 -113.121094 81.273438 -112.570312 79.859375 -111.46875 C 78.59375 -110.484375 77.65625 -109.257812 77.042969 -107.789062 C 76.609375 -106.761719 76.394531 -105.746094 76.394531 -104.738281 C 76.394531 -103.902344 76.492188 -103.15625 76.683594 -102.496094 C 76.710938 -102.414062 76.730469 -102.347656 76.746094 -102.304688 C 76.734375 -102.339844 76.710938 -102.390625 76.679688 -102.464844 C 76.394531 -103.105469 75.902344 -104.019531 75.195312 -105.207031 L 61.3125 -129.113281 L 61.3125 -143.960938 L 65.542969 -147.445312 C 70.558594 -151.574219 76.542969 -154.738281 83.5 -156.929688 C 90.152344 -159.023438 97.027344 -160.074219 104.113281 -160.074219 C 115.828125 -160.074219 125.546875 -157.796875 133.265625 -153.246094 C 138.613281 -150.015625 142.648438 -145.824219 145.371094 -140.679688 C 147.988281 -135.726562 149.300781 -130.082031 149.300781 -123.734375 L 149.300781 -16.332031 C 149.300781 -10.765625 147.890625 -5.835938 145.070312 -1.539062 C 142.332031 2.636719 138.433594 5.925781 133.375 8.332031 C 126.582031 11.730469 117.851562 13.429688 107.175781 13.429688 C 101.390625 13.429688 95.75 12.800781 90.25 11.550781 C 84.316406 10.199219 79.46875 8.339844 75.703125 5.976562 L 73.980469 4.894531 L 72.730469 3.289062 C 67.101562 -3.921875 61.535156 -11.976562 56.019531 -20.875 L 44.367188 -40.296875 L 54.324219 -46.273438 L 55.914062 -34.769531 C 56.460938 -34.84375 57.035156 -35.015625 57.636719 -35.285156 C 58.648438 -35.738281 59.550781 -36.386719 60.339844 -37.234375 C 61.203125 -38.15625 61.832031 -39.203125 62.234375 -40.375 C 62.511719 -41.1875 62.648438 -41.984375 62.648438 -42.757812 C 62.648438 -43.546875 62.5625 -44.242188 62.386719 -44.839844 C 62.375 -44.878906 62.363281 -44.914062 62.355469 -44.941406 C 62.378906 -44.875 62.417969 -44.789062 62.464844 -44.683594 C 62.816406 -43.890625 63.417969 -42.792969 64.265625 -41.390625 L 80.117188 -15.777344 L 80.117188 -0.144531 L 74.808594 3.289062 C 64.117188 10.199219 52.128906 13.65625 38.84375 13.65625 C 25.570312 13.65625 14.859375 11.039062 6.707031 5.800781 C 1.9375 2.738281 -1.703125 -1.074219 -4.207031 -5.632812 C -6.726562 -10.210938 -7.984375 -15.324219 -7.984375 -20.980469 Z M 15.242188 -20.980469 C 15.242188 -19.304688 15.542969 -17.917969 16.144531 -16.824219 C 16.757812 -15.710938 17.796875 -14.683594 19.261719 -13.742188 C 23.589844 -10.960938 30.117188 -9.574219 38.84375 -9.574219 C 47.5625 -9.574219 55.34375 -11.789062 62.195312 -16.21875 L 68.503906 -6.464844 L 56.886719 -6.464844 L 56.886719 -12.476562 L 68.503906 -12.476562 L 58.625 -6.363281 L 44.386719 -29.378906 C 43.039062 -31.605469 41.996094 -33.550781 41.253906 -35.21875 C 40.03125 -37.953125 39.421875 -40.464844 39.421875 -42.757812 C 39.421875 -44.550781 39.699219 -46.257812 40.25 -47.875 C 40.925781 -49.851562 41.96875 -51.59375 43.378906 -53.101562 C 45.800781 -55.691406 48.921875 -57.25 52.738281 -57.777344 L 60.335938 -58.824219 L 75.765625 -33.109375 C 80.839844 -24.921875 85.929688 -17.550781 91.042969 -11 L 81.886719 -3.855469 L 88.066406 -13.6875 C 89.597656 -12.726562 92.042969 -11.863281 95.40625 -11.097656 C 99.210938 -10.230469 103.132812 -9.800781 107.175781 -9.800781 C 114.195312 -9.800781 119.601562 -10.746094 123.398438 -12.644531 C 124.539062 -13.1875 125.289062 -13.730469 125.648438 -14.28125 C 125.929688 -14.710938 126.070312 -15.394531 126.070312 -16.332031 L 126.070312 -123.734375 C 126.070312 -126.234375 125.660156 -128.261719 124.839844 -129.816406 C 124.121094 -131.171875 122.996094 -132.3125 121.464844 -133.238281 C 117.386719 -135.644531 111.605469 -136.84375 104.113281 -136.84375 C 99.40625 -136.84375 94.863281 -136.15625 90.480469 -134.773438 C 86.394531 -133.488281 83.003906 -131.734375 80.308594 -129.515625 L 72.925781 -138.480469 L 84.539062 -138.480469 L 84.539062 -132.242188 L 72.925781 -132.242188 L 82.96875 -138.074219 L 95.152344 -117.085938 C 96.335938 -115.097656 97.261719 -113.355469 97.921875 -111.863281 C 99.054688 -109.296875 99.625 -106.921875 99.625 -104.738281 C 99.625 -102.636719 99.238281 -100.664062 98.46875 -98.820312 C 97.511719 -96.539062 96.0625 -94.644531 94.117188 -93.132812 C 91.339844 -90.972656 88.207031 -89.890625 84.71875 -89.890625 L 78.152344 -89.890625 L 74.765625 -95.523438 C 65.808594 -110.425781 60.066406 -119.882812 57.539062 -123.898438 C 55.1875 -127.632812 52.589844 -131.308594 49.742188 -134.917969 L 58.863281 -142.109375 L 51.605469 -133.039062 C 50.585938 -133.855469 48.710938 -134.640625 45.980469 -135.386719 C 42.710938 -136.285156 39.179688 -136.730469 35.386719 -136.730469 C 28.378906 -136.730469 22.425781 -135.722656 17.535156 -133.699219 C 16.542969 -133.289062 15.726562 -132.886719 15.082031 -132.484375 C 14.714844 -132.257812 14.472656 -132.082031 14.351562 -131.957031 C 14.527344 -132.140625 14.695312 -132.414062 14.859375 -132.785156 C 15.113281 -133.371094 15.242188 -133.984375 15.242188 -134.621094 Z M 15.242188 -20.980469 "/></g></g></g><g fill="#eeedea" fill-opacity="1"><g transform="translate(389.876232, 175.512134)"><g><path d="M 60.632812 -78.257812 C 60.632812 -84.902344 60.398438 -89.195312 59.929688 -91.140625 C 59.925781 -91.167969 59.917969 -91.1875 59.914062 -91.207031 L 59.917969 -91.195312 C 59.945312 -91.113281 59.980469 -91.023438 60.03125 -90.914062 C 60.265625 -90.394531 60.609375 -89.878906 61.058594 -89.367188 C 61.824219 -88.496094 62.757812 -87.808594 63.855469 -87.296875 C 65.023438 -86.757812 66.230469 -86.488281 67.480469 -86.488281 C 69.152344 -86.488281 70.609375 -87.007812 71.855469 -88.046875 L 64.417969 -96.96875 L 75.960938 -98.25 C 76.105469 -96.976562 76.320312 -95.246094 76.613281 -93.058594 C 76.980469 -90.28125 77.167969 -84.933594 77.167969 -77.007812 L 77.167969 -69.636719 C 77.167969 -64.121094 77.035156 -60.003906 76.773438 -57.289062 L 76.207031 -51.304688 L 75.992188 -48.710938 L 64.417969 -49.675781 L 71.855469 -58.597656 C 70.609375 -59.636719 69.152344 -60.15625 67.480469 -60.15625 C 66.230469 -60.15625 65.023438 -59.886719 63.855469 -59.347656 C 62.757812 -58.835938 61.824219 -58.148438 61.058594 -57.277344 C 60.609375 -56.765625 60.265625 -56.25 60.03125 -55.730469 C 59.980469 -55.621094 59.945312 -55.53125 59.917969 -55.453125 L 59.914062 -55.4375 C 59.917969 -55.457031 59.925781 -55.476562 59.929688 -55.503906 C 60.398438 -57.449219 60.632812 -61.742188 60.632812 -68.390625 Z M 83.859375 -78.257812 L 83.859375 -68.390625 C 83.859375 -59.910156 83.410156 -53.808594 82.515625 -50.085938 C 81.730469 -46.800781 80.390625 -44.082031 78.496094 -41.933594 C 77.105469 -40.351562 75.480469 -39.132812 73.617188 -38.269531 C 71.683594 -37.375 69.640625 -36.925781 67.480469 -36.925781 C 63.542969 -36.925781 60.046875 -38.203125 56.984375 -40.753906 L 52.34375 -44.621094 L 53.082031 -53.488281 L 53.652344 -59.527344 C 53.84375 -61.5 53.941406 -64.867188 53.941406 -69.636719 L 53.941406 -77.007812 C 53.941406 -83.902344 53.824219 -88.230469 53.585938 -89.992188 C 53.273438 -92.34375 53.035156 -94.242188 52.875 -95.6875 L 52.1875 -101.894531 L 56.984375 -105.890625 C 60.046875 -108.441406 63.542969 -109.71875 67.480469 -109.71875 C 69.640625 -109.71875 71.683594 -109.269531 73.617188 -108.375 C 75.480469 -107.515625 77.105469 -106.292969 78.496094 -104.710938 C 80.390625 -102.5625 81.730469 -99.84375 82.515625 -96.5625 C 83.410156 -92.835938 83.859375 -86.734375 83.859375 -78.257812 Z M 29.941406 11.726562 C 18.398438 11.726562 9.210938 8.398438 2.382812 1.738281 C -4.527344 -5.003906 -7.984375 -14.503906 -7.984375 -26.765625 L -7.984375 -128.839844 C -7.984375 -140.109375 0.390625 -148.625 17.144531 -154.394531 C 29.898438 -158.785156 44.03125 -160.980469 59.542969 -160.980469 C 87.441406 -160.980469 109.511719 -153.996094 125.75 -140.023438 C 134.777344 -132.265625 141.527344 -122.636719 146.011719 -111.140625 C 150.320312 -100.085938 152.472656 -87.386719 152.472656 -73.039062 C 152.472656 -59.917969 150.359375 -48.160156 146.132812 -37.761719 C 141.78125 -27.058594 135.257812 -17.90625 126.554688 -10.304688 C 109.734375 4.382812 87.097656 11.726562 58.636719 11.726562 Z M 29.941406 -11.5 L 58.636719 -11.5 C 81.285156 -11.5 98.832031 -16.933594 111.273438 -27.800781 C 117.203125 -32.980469 121.652344 -39.214844 124.617188 -46.507812 C 127.703125 -54.101562 129.246094 -62.945312 129.246094 -73.039062 C 129.246094 -84.472656 127.621094 -94.363281 124.371094 -102.703125 C 121.289062 -110.601562 116.703125 -117.171875 110.605469 -122.414062 C 98.71875 -132.640625 81.699219 -137.753906 59.542969 -137.753906 C 46.625 -137.753906 35.011719 -135.980469 24.707031 -132.429688 C 20.304688 -130.917969 17.214844 -129.410156 15.4375 -127.910156 C 15.207031 -127.71875 15.03125 -127.546875 14.90625 -127.402344 C 14.882812 -127.375 14.867188 -127.355469 14.859375 -127.34375 C 14.875 -127.363281 14.890625 -127.394531 14.914062 -127.433594 C 15.132812 -127.839844 15.242188 -128.304688 15.242188 -128.839844 L 15.242188 -26.765625 C 15.242188 -21.03125 16.363281 -17.074219 18.597656 -14.894531 C 20.917969 -12.632812 24.699219 -11.5 29.941406 -11.5 Z M 29.941406 -11.5 "/></g></g></g><g fill="#eeedea" fill-opacity="1"><g transform="translate(531.576805, 175.512134)"><g><path d="M 62.570312 -52.710938 C 62.230469 -52.648438 61.851562 -52.519531 61.433594 -52.328125 C 60.613281 -51.953125 59.863281 -51.417969 59.179688 -50.722656 C 58.332031 -49.863281 57.695312 -48.863281 57.273438 -47.734375 C 56.941406 -46.84375 56.773438 -45.957031 56.773438 -45.082031 C 56.773438 -45.027344 56.777344 -44.988281 56.777344 -44.972656 C 56.769531 -45.039062 56.746094 -45.132812 56.714844 -45.246094 C 56.589844 -45.691406 56.367188 -46.230469 56.046875 -46.859375 C 55.363281 -48.203125 54.261719 -49.570312 52.738281 -50.960938 C 48.257812 -54.988281 41.753906 -57 33.230469 -57 C 28.996094 -57 25.09375 -56.316406 21.523438 -54.941406 L 16.703125 -53.085938 L 12.097656 -55.421875 C 4.71875 -59.164062 -1.09375 -64.976562 -5.34375 -72.855469 C -9.371094 -80.324219 -11.386719 -88.359375 -11.386719 -96.96875 C -11.386719 -107.625 -9.105469 -117.167969 -4.542969 -125.601562 C 0.0195312 -134.042969 6.757812 -141.164062 15.664062 -146.964844 C 30.074219 -156.308594 47.574219 -160.980469 68.160156 -160.980469 C 82.957031 -160.980469 95.566406 -159.347656 105.996094 -156.082031 C 116.609375 -152.761719 125.414062 -148.410156 132.402344 -143.035156 L 135.148438 -140.921875 L 136.289062 -137.652344 C 138.460938 -131.421875 139.546875 -124.96875 139.546875 -118.292969 C 139.546875 -111.6875 138.632812 -105.605469 136.8125 -100.046875 C 134.78125 -93.847656 131.722656 -88.761719 127.632812 -84.785156 L 120.582031 -77.929688 L 112.660156 -83.757812 C 112.128906 -84.144531 111.132812 -84.644531 109.675781 -85.25 C 107.738281 -86.050781 105.292969 -86.882812 102.332031 -87.75 C 96.667969 -89.40625 91.628906 -90.230469 87.214844 -90.230469 C 84.8125 -90.230469 82.867188 -90.164062 81.378906 -90.027344 C 80.804688 -89.972656 80.34375 -89.914062 79.996094 -89.851562 C 79.917969 -89.835938 79.863281 -89.824219 79.835938 -89.816406 C 79.921875 -89.839844 80.03125 -89.875 80.164062 -89.921875 C 81.089844 -90.265625 81.976562 -90.914062 82.8125 -91.875 C 84.265625 -93.535156 84.992188 -95.457031 84.992188 -97.648438 C 84.992188 -98.375 84.859375 -99.089844 84.59375 -99.800781 L 73.71875 -95.722656 L 70.828125 -106.96875 C 74.421875 -107.894531 78.789062 -108.355469 83.925781 -108.355469 C 101.246094 -108.355469 115.585938 -104.105469 126.949219 -95.609375 C 134.074219 -90.203125 139.410156 -83.464844 142.957031 -75.386719 C 146.355469 -67.660156 148.050781 -58.824219 148.050781 -48.882812 C 148.050781 -39.761719 146.175781 -31.351562 142.425781 -23.660156 C 138.710938 -16.042969 133.226562 -9.277344 125.96875 -3.359375 C 110.957031 8.738281 91.234375 14.789062 66.800781 14.789062 C 54.078125 14.789062 42.953125 13.824219 33.417969 11.894531 C 23.53125 9.890625 13.925781 6.386719 4.605469 1.386719 L 2.121094 0.0585938 L 0.527344 -2.261719 C -6.507812 -12.488281 -10.027344 -23.054688 -10.027344 -33.96875 C -10.027344 -39.757812 -9.003906 -45.121094 -6.964844 -50.066406 C -4.886719 -55.09375 -1.808594 -59.570312 2.273438 -63.492188 C 6.296875 -67.359375 10.816406 -70.273438 15.835938 -72.230469 C 20.777344 -74.160156 26.101562 -75.125 31.8125 -75.125 C 42.59375 -75.125 51.644531 -72.769531 58.964844 -68.0625 C 66.6875 -63.09375 72.257812 -55.371094 75.683594 -44.890625 L 64.644531 -41.28125 Z M 66.722656 -29.855469 L 56.753906 -28.042969 L 53.605469 -37.675781 C 51.890625 -42.921875 49.488281 -46.539062 46.398438 -48.527344 C 42.90625 -50.773438 38.042969 -51.898438 31.8125 -51.898438 C 29.019531 -51.898438 26.507812 -51.464844 24.285156 -50.59375 C 22.140625 -49.757812 20.167969 -48.472656 18.367188 -46.746094 C 16.628906 -45.074219 15.339844 -43.226562 14.507812 -41.203125 C 13.636719 -39.097656 13.203125 -36.683594 13.203125 -33.96875 C 13.203125 -27.867188 15.355469 -21.6875 19.660156 -15.429688 L 10.09375 -8.847656 L 15.582031 -19.082031 C 22.894531 -15.160156 30.378906 -12.421875 38.03125 -10.871094 C 46.042969 -9.25 55.632812 -8.4375 66.800781 -8.4375 C 85.769531 -8.4375 100.601562 -12.746094 111.292969 -21.363281 C 115.90625 -25.125 119.324219 -29.285156 121.546875 -33.839844 C 123.730469 -38.320312 124.824219 -43.335938 124.824219 -48.882812 C 124.824219 -55.574219 123.78125 -61.292969 121.695312 -66.042969 C 119.761719 -70.441406 116.875 -74.09375 113.035156 -77.007812 C 105.796875 -82.421875 96.09375 -85.128906 83.925781 -85.128906 C 80.746094 -85.128906 78.308594 -84.910156 76.613281 -84.472656 L 66.507812 -81.875 L 62.84375 -91.644531 C 62.125 -93.5625 61.765625 -95.566406 61.765625 -97.648438 C 61.765625 -101.277344 62.953125 -104.449219 65.332031 -107.167969 C 67.097656 -109.1875 69.371094 -110.707031 72.152344 -111.726562 C 74.03125 -112.417969 76.394531 -112.890625 79.242188 -113.15625 C 81.441406 -113.359375 84.097656 -113.460938 87.214844 -113.460938 C 93.84375 -113.460938 101.054688 -112.320312 108.84375 -110.046875 C 116.886719 -107.695312 122.746094 -105.171875 126.417969 -102.46875 L 119.539062 -93.113281 L 111.441406 -101.441406 C 112.796875 -102.757812 113.898438 -104.703125 114.738281 -107.277344 C 115.792969 -110.488281 116.316406 -114.160156 116.316406 -118.292969 C 116.316406 -122.347656 115.664062 -126.253906 114.355469 -130.007812 L 125.324219 -133.828125 L 118.242188 -124.625 C 113.4375 -128.320312 107.042969 -131.417969 99.058594 -133.917969 C 90.886719 -136.472656 80.589844 -137.753906 68.160156 -137.753906 C 52.15625 -137.753906 38.882812 -134.335938 28.339844 -127.5 C 22.730469 -123.847656 18.578125 -119.53125 15.886719 -114.550781 C 13.1875 -109.566406 11.839844 -103.703125 11.839844 -96.96875 C 11.839844 -92.269531 12.925781 -87.910156 15.097656 -83.882812 C 17.046875 -80.269531 19.550781 -77.6875 22.605469 -76.136719 L 17.351562 -65.78125 L 13.183594 -76.621094 C 19.441406 -79.027344 26.121094 -80.230469 33.230469 -80.230469 C 47.691406 -80.230469 59.410156 -76.195312 68.386719 -68.125 C 72.007812 -64.824219 74.796875 -61.242188 76.761719 -57.367188 C 78.921875 -53.109375 80.003906 -49.011719 80.003906 -45.082031 C 80.003906 -43.164062 79.679688 -41.34375 79.035156 -39.617188 C 78.304688 -37.648438 77.199219 -35.917969 75.726562 -34.421875 C 73.382812 -32.042969 70.382812 -30.519531 66.722656 -29.855469 Z M 66.722656 -29.855469 "/></g></g></g><g fill="#eeedea" fill-opacity="1"><g transform="translate(667.153116, 175.512134)"><g><path d="M 73.996094 -85.390625 C 72.519531 -86.5 70.992188 -87.15625 69.410156 -87.363281 C 69.34375 -87.371094 69.28125 -87.378906 69.234375 -87.382812 C 69.335938 -87.378906 69.46875 -87.375 69.636719 -87.375 C 68.472656 -87.375 67.324219 -87.082031 66.199219 -86.5 C 64.972656 -85.867188 63.992188 -85 63.261719 -83.902344 C 62.800781 -83.210938 62.511719 -82.582031 62.398438 -82.023438 C 62.429688 -82.183594 62.445312 -82.515625 62.445312 -83.019531 L 62.445312 -91.640625 C 62.445312 -92.363281 62.417969 -92.902344 62.359375 -93.25 C 62.414062 -92.917969 62.597656 -92.46875 62.914062 -91.894531 C 63.667969 -90.515625 64.761719 -89.429688 66.195312 -88.636719 C 67.414062 -87.960938 68.65625 -87.625 69.921875 -87.625 C 69.789062 -87.625 69.683594 -87.621094 69.609375 -87.617188 C 69.644531 -87.617188 69.707031 -87.625 69.796875 -87.640625 C 70.726562 -87.78125 71.683594 -88.132812 72.675781 -88.699219 L 66.914062 -98.785156 L 78.304688 -101.0625 C 78.527344 -99.933594 78.640625 -98.53125 78.640625 -96.855469 L 78.640625 -76.101562 L 67.027344 -76.101562 Z M 55.414062 -70.292969 L 55.414062 -96.855469 C 55.414062 -97.082031 55.410156 -97.242188 55.40625 -97.335938 C 55.417969 -97.121094 55.457031 -96.84375 55.527344 -96.507812 L 53.882812 -104.714844 L 61.152344 -108.867188 C 63.46875 -110.191406 66.390625 -110.851562 69.921875 -110.851562 C 72.65625 -110.851562 75.164062 -110.21875 77.445312 -108.960938 C 79.933594 -107.582031 81.878906 -105.617188 83.277344 -103.0625 C 84.875 -100.152344 85.671875 -96.34375 85.671875 -91.640625 L 85.671875 -83.019531 C 85.671875 -78.105469 84.644531 -74.105469 82.589844 -71.019531 C 81.101562 -68.789062 79.195312 -67.074219 76.871094 -65.871094 C 74.648438 -64.722656 72.238281 -64.148438 69.636719 -64.148438 C 68.414062 -64.148438 67.339844 -64.207031 66.40625 -64.328125 C 63.953125 -64.648438 61.839844 -65.476562 60.058594 -66.808594 Z M 81.476562 -24.835938 L 81.476562 -2.078125 L 77.339844 1.402344 C 72.769531 5.246094 66.679688 8.285156 59.074219 10.519531 C 51.957031 12.609375 44.550781 13.65625 36.859375 13.65625 C 25.316406 13.65625 15.632812 11.277344 7.804688 6.523438 C 2.675781 3.386719 -1.234375 -0.558594 -3.925781 -5.308594 C -6.632812 -10.089844 -7.984375 -15.464844 -7.984375 -21.433594 L -7.984375 -129.179688 C -7.984375 -132.769531 -6.902344 -136.15625 -4.742188 -139.335938 C -3.175781 -141.644531 -1.03125 -143.796875 1.679688 -145.792969 C 5.941406 -148.925781 11.550781 -151.667969 18.515625 -154.019531 C 32.1875 -158.660156 47.679688 -160.980469 64.988281 -160.980469 C 89.957031 -160.980469 110.101562 -154.554688 125.417969 -141.703125 C 133.367188 -135.03125 139.351562 -127.167969 143.367188 -118.105469 C 147.320312 -109.1875 149.300781 -99.25 149.300781 -88.292969 C 149.300781 -77.449219 147.527344 -67.699219 143.980469 -59.042969 C 140.320312 -50.097656 134.832031 -42.433594 127.515625 -36.046875 C 113.882812 -24.308594 95.496094 -18.441406 72.359375 -18.441406 C 66.945312 -18.441406 61.222656 -19.070312 55.1875 -20.332031 C 49.078125 -21.605469 44.722656 -22.839844 42.113281 -24.035156 L 46.953125 -34.589844 L 55.164062 -26.378906 C 56.078125 -27.292969 56.75 -28.347656 57.1875 -29.546875 C 57.503906 -30.410156 57.660156 -31.261719 57.660156 -32.097656 C 57.660156 -33.660156 57.28125 -35.109375 56.519531 -36.449219 C 56.019531 -37.328125 55.425781 -38.039062 54.738281 -38.585938 C 54.585938 -38.703125 54.445312 -38.800781 54.320312 -38.878906 L 54.308594 -38.886719 C 54.554688 -38.773438 54.917969 -38.640625 55.386719 -38.5 C 58.484375 -37.554688 63.550781 -36.863281 70.582031 -36.429688 L 81.476562 -35.753906 Z M 58.25 -24.835938 L 69.863281 -24.835938 L 69.144531 -13.246094 C 60.296875 -13.792969 53.453125 -14.804688 48.613281 -16.28125 C 45.230469 -17.3125 42.472656 -18.671875 40.332031 -20.363281 C 38.652344 -21.691406 37.3125 -23.234375 36.316406 -24.984375 C 35.0625 -27.199219 34.433594 -29.570312 34.433594 -32.097656 C 34.433594 -33.988281 34.742188 -35.785156 35.359375 -37.484375 C 36.097656 -39.511719 37.222656 -41.285156 38.742188 -42.804688 L 44.453125 -48.515625 L 51.792969 -45.148438 C 52.816406 -44.679688 55.527344 -43.988281 59.929688 -43.070312 C 64.402344 -42.136719 68.546875 -41.667969 72.359375 -41.667969 C 89.746094 -41.667969 103.042969 -45.628906 112.242188 -53.550781 C 116.796875 -57.523438 120.210938 -62.289062 122.484375 -67.839844 C 124.875 -73.679688 126.070312 -80.496094 126.070312 -88.292969 C 126.070312 -95.972656 124.757812 -102.773438 122.132812 -108.695312 C 119.570312 -114.472656 115.6875 -119.546875 110.484375 -123.910156 C 99.488281 -133.140625 84.320312 -137.753906 64.988281 -137.753906 C 50.234375 -137.753906 37.222656 -135.839844 25.945312 -132.011719 C 21.265625 -130.429688 17.765625 -128.789062 15.445312 -127.082031 C 15.066406 -126.800781 14.761719 -126.550781 14.535156 -126.332031 C 14.480469 -126.277344 14.4375 -126.230469 14.40625 -126.195312 C 14.417969 -126.210938 14.441406 -126.238281 14.46875 -126.28125 C 14.984375 -127.039062 15.242188 -128.007812 15.242188 -129.179688 L 15.242188 -21.433594 C 15.242188 -19.542969 15.589844 -17.980469 16.289062 -16.75 C 17 -15.492188 18.195312 -14.351562 19.867188 -13.328125 C 23.988281 -10.824219 29.652344 -9.574219 36.859375 -9.574219 C 42.324219 -9.574219 47.546875 -10.304688 52.527344 -11.765625 C 57.015625 -13.085938 60.304688 -14.621094 62.386719 -16.375 L 69.863281 -7.484375 L 58.25 -7.484375 Z M 58.25 -24.835938 "/></g></g></g><g fill="#eeedea" fill-opacity="1"><g transform="translate(803.183026, 175.512134)"><g><path d="M 73.996094 -89.929688 C 72.519531 -91.035156 70.992188 -91.691406 69.410156 -91.898438 C 69.34375 -91.90625 69.28125 -91.914062 69.234375 -91.917969 C 69.335938 -91.914062 69.46875 -91.910156 69.636719 -91.910156 C 68.472656 -91.910156 67.324219 -91.621094 66.199219 -91.039062 C 64.972656 -90.402344 63.992188 -89.539062 63.261719 -88.441406 C 62.800781 -87.746094 62.511719 -87.121094 62.398438 -86.5625 C 62.429688 -86.722656 62.445312 -87.050781 62.445312 -87.554688 L 62.445312 -91.640625 C 62.445312 -92.363281 62.417969 -92.902344 62.359375 -93.25 C 62.414062 -92.917969 62.597656 -92.46875 62.914062 -91.894531 C 63.667969 -90.515625 64.761719 -89.429688 66.195312 -88.636719 C 67.414062 -87.960938 68.65625 -87.625 69.921875 -87.625 C 69.789062 -87.625 69.683594 -87.621094 69.609375 -87.617188 C 69.644531 -87.617188 69.707031 -87.625 69.796875 -87.640625 C 70.726562 -87.78125 71.683594 -88.132812 72.675781 -88.699219 L 66.914062 -98.785156 L 78.304688 -101.0625 C 78.527344 -99.933594 78.640625 -98.53125 78.640625 -96.855469 L 78.640625 -80.636719 L 67.027344 -80.636719 Z M 55.414062 -74.832031 L 55.414062 -96.855469 C 55.414062 -97.082031 55.410156 -97.242188 55.40625 -97.335938 C 55.417969 -97.121094 55.457031 -96.84375 55.527344 -96.507812 L 53.882812 -104.714844 L 61.152344 -108.867188 C 63.46875 -110.191406 66.390625 -110.851562 69.921875 -110.851562 C 72.65625 -110.851562 75.164062 -110.21875 77.445312 -108.960938 C 79.933594 -107.582031 81.878906 -105.617188 83.277344 -103.0625 C 84.875 -100.152344 85.671875 -96.34375 85.671875 -91.640625 L 85.671875 -87.554688 C 85.671875 -82.640625 84.644531 -78.640625 82.589844 -75.554688 C 81.101562 -73.324219 79.195312 -71.609375 76.871094 -70.40625 C 74.648438 -69.257812 72.238281 -68.683594 69.636719 -68.683594 C 68.414062 -68.683594 67.339844 -68.746094 66.40625 -68.867188 C 63.953125 -69.1875 61.839844 -70.011719 60.058594 -71.347656 Z M 133.855469 -62.898438 L 157.339844 -38.867188 L 156.707031 -33.375 C 155.046875 -18.988281 150.273438 -7.683594 142.382812 0.550781 C 138.125 4.992188 133.074219 8.316406 127.226562 10.523438 C 121.699219 12.613281 115.546875 13.65625 108.765625 13.65625 C 98.390625 13.65625 89.261719 11.109375 81.371094 6.015625 C 71.539062 -0.214844 64.285156 -9.878906 59.605469 -22.972656 L 55.558594 -33.988281 L 66.460938 -37.992188 L 66.183594 -26.382812 C 62.5 -26.472656 57.988281 -26.933594 52.644531 -27.765625 L 54.4375 -39.242188 L 62.652344 -31.027344 C 63.5625 -31.941406 64.238281 -32.996094 64.671875 -34.195312 C 64.988281 -35.0625 65.144531 -35.910156 65.144531 -36.746094 C 65.144531 -38.042969 64.894531 -39.292969 64.390625 -40.496094 C 63.945312 -41.566406 63.335938 -42.511719 62.558594 -43.332031 C 61.757812 -44.183594 60.9375 -44.777344 60.09375 -45.109375 C 60.050781 -45.128906 60.015625 -45.140625 59.988281 -45.148438 C 60 -45.144531 60.027344 -45.136719 60.0625 -45.128906 C 60.222656 -45.085938 60.425781 -45.042969 60.675781 -45 C 61.40625 -44.875 62.324219 -44.777344 63.433594 -44.707031 L 70.800781 -44.253906 L 80.796875 -19 L 80.796875 -1.121094 L 75.871094 2.351562 C 65.171875 9.886719 51.789062 13.65625 35.726562 13.65625 C 23.566406 13.65625 13.582031 10.96875 5.777344 5.597656 C 1.222656 2.460938 -2.226562 -1.453125 -4.574219 -6.148438 C -6.847656 -10.691406 -7.984375 -15.789062 -7.984375 -21.433594 L -7.984375 -129.179688 C -7.984375 -137.238281 -2.816406 -143.917969 7.519531 -149.210938 C 14.621094 -152.851562 23.660156 -155.738281 34.640625 -157.875 C 45.277344 -159.945312 55.921875 -160.980469 66.574219 -160.980469 C 91.777344 -160.980469 111.785156 -155.589844 126.601562 -144.808594 C 134.875 -138.808594 141.121094 -131.515625 145.335938 -122.921875 C 149.488281 -114.449219 151.566406 -104.890625 151.566406 -94.246094 C 151.566406 -81.425781 147.878906 -70.347656 140.5 -61.015625 C 133.332031 -51.949219 124.277344 -45.65625 113.34375 -42.136719 L 109.785156 -53.191406 L 121.398438 -53.191406 C 121.398438 -54.082031 121.210938 -54.992188 120.835938 -55.925781 C 120.289062 -57.292969 119.445312 -58.449219 118.300781 -59.402344 C 117.386719 -60.160156 116.398438 -60.6875 115.34375 -60.980469 C 114.875 -61.109375 114.476562 -61.175781 114.152344 -61.175781 C 113.890625 -61.175781 113.703125 -61.160156 113.585938 -61.128906 C 113.765625 -61.175781 114.019531 -61.277344 114.351562 -61.425781 C 115.511719 -61.957031 116.9375 -62.851562 118.628906 -64.105469 L 126.769531 -70.144531 Z M 117.242188 -46.660156 L 125.550781 -54.777344 L 132.46875 -45.453125 C 129.472656 -43.230469 126.65625 -41.511719 124.019531 -40.304688 C 120.582031 -38.734375 117.292969 -37.949219 114.152344 -37.949219 C 109.898438 -37.949219 106.332031 -39.144531 103.453125 -41.539062 C 101.582031 -43.09375 100.191406 -45.007812 99.277344 -47.28125 C 98.539062 -49.121094 98.171875 -51.089844 98.171875 -53.191406 L 98.171875 -61.65625 L 106.226562 -64.246094 C 112.679688 -66.324219 118.03125 -70.046875 122.28125 -75.421875 C 126.320312 -80.53125 128.339844 -86.804688 128.339844 -94.246094 C 128.339844 -101.296875 127.050781 -107.445312 124.480469 -112.695312 C 121.960938 -117.828125 118.113281 -122.269531 112.929688 -126.027344 C 102.191406 -133.84375 86.738281 -137.753906 66.574219 -137.753906 C 57.414062 -137.753906 48.25 -136.859375 39.078125 -135.074219 C 30.25 -133.355469 23.261719 -131.175781 18.113281 -128.539062 C 16.226562 -127.574219 14.976562 -126.765625 14.355469 -126.109375 C 14.457031 -126.214844 14.578125 -126.425781 14.726562 -126.742188 C 15.070312 -127.480469 15.242188 -128.292969 15.242188 -129.179688 L 15.242188 -21.433594 C 15.242188 -19.445312 15.5625 -17.8125 16.199219 -16.535156 C 16.761719 -15.410156 17.679688 -14.410156 18.945312 -13.535156 C 22.785156 -10.894531 28.378906 -9.574219 35.726562 -9.574219 C 46.882812 -9.574219 55.804688 -11.929688 62.496094 -16.640625 L 69.183594 -7.144531 L 57.570312 -7.144531 L 57.570312 -16.785156 L 69.183594 -16.785156 L 58.382812 -12.511719 L 51.917969 -28.84375 L 62.71875 -33.117188 L 62.003906 -21.523438 C 48.613281 -22.351562 41.917969 -27.425781 41.917969 -36.746094 C 41.917969 -38.640625 42.226562 -40.433594 42.84375 -42.132812 C 43.582031 -44.164062 44.710938 -45.9375 46.226562 -47.453125 L 50.398438 -51.628906 L 56.230469 -50.714844 C 60.566406 -50.039062 64.070312 -49.667969 66.738281 -49.605469 L 74.636719 -49.417969 L 81.480469 -30.785156 C 84.363281 -22.710938 88.527344 -16.949219 93.96875 -13.5 C 98.023438 -10.882812 102.957031 -9.574219 108.765625 -9.574219 C 116.195312 -9.574219 121.8125 -11.554688 125.613281 -15.519531 C 129.898438 -19.992188 132.570312 -26.828125 133.632812 -36.035156 L 145.171875 -34.703125 L 136.863281 -26.585938 Z M 117.242188 -46.660156 "/></g></g></g><g fill="#eeedea" fill-opacity="1"><g transform="translate(946.131099, 175.512134)"><g><path d="M 81.476562 -125.777344 L 81.476562 -3.328125 L 77.484375 0.144531 C 72.886719 4.140625 66.976562 7.40625 59.757812 9.9375 C 52.691406 12.417969 44.339844 13.65625 34.703125 13.65625 C 24.132812 13.65625 14.984375 11.199219 7.261719 6.28125 C 2.417969 3.335938 -1.316406 -0.410156 -3.949219 -4.949219 C -6.640625 -9.585938 -7.984375 -14.777344 -7.984375 -20.527344 L -7.984375 -142.976562 L -3.992188 -146.449219 C 0.605469 -150.445312 6.515625 -153.710938 13.734375 -156.242188 C 20.800781 -158.722656 29.113281 -159.960938 38.675781 -159.960938 C 49.058594 -159.960938 58.195312 -157.59375 66.085938 -152.859375 L 66.226562 -152.777344 L 66.367188 -152.6875 C 71.226562 -149.578125 74.945312 -145.765625 77.515625 -141.25 C 80.15625 -136.613281 81.476562 -131.457031 81.476562 -125.777344 Z M 58.25 -125.777344 C 58.25 -127.355469 57.945312 -128.679688 57.332031 -129.753906 C 56.652344 -130.949219 55.492188 -132.070312 53.851562 -133.117188 L 60.109375 -142.902344 L 54.132812 -132.941406 C 49.925781 -135.46875 44.769531 -136.730469 38.675781 -136.730469 C 31.75 -136.730469 26 -135.929688 21.421875 -134.324219 C 17 -132.773438 13.609375 -130.972656 11.25 -128.921875 L 3.628906 -137.683594 L 15.242188 -137.683594 L 15.242188 -20.527344 C 15.242188 -18.945312 15.542969 -17.636719 16.140625 -16.601562 C 16.800781 -15.46875 17.996094 -14.375 19.730469 -13.3125 C 23.652344 -10.820312 28.640625 -9.574219 34.703125 -9.574219 C 41.703125 -9.574219 47.492188 -10.375 52.070312 -11.980469 C 56.492188 -13.53125 59.882812 -15.332031 62.242188 -17.382812 L 69.863281 -8.621094 L 58.25 -8.621094 Z M 58.25 -125.777344 "/></g></g></g><g fill="#eeedea" fill-opacity="1"><g transform="translate(1017.96947, 175.512134)"><g><path d="M -7.984375 -20.980469 L -7.984375 -134.621094 C -7.984375 -137.226562 -7.460938 -139.722656 -6.414062 -142.109375 C -5.464844 -144.28125 -4.113281 -146.273438 -2.359375 -148.089844 C 0.339844 -150.886719 4.015625 -153.246094 8.664062 -155.167969 C 16.398438 -158.363281 25.304688 -159.960938 35.386719 -159.960938 C 41.265625 -159.960938 46.847656 -159.234375 52.125 -157.789062 C 57.9375 -156.195312 62.601562 -153.988281 66.117188 -151.175781 L 67.15625 -150.34375 L 67.980469 -149.300781 C 71.335938 -145.046875 74.40625 -140.703125 77.195312 -136.273438 C 79.808594 -132.125 85.636719 -122.527344 94.675781 -107.488281 L 84.71875 -101.503906 L 84.71875 -113.121094 C 82.894531 -113.121094 81.273438 -112.570312 79.859375 -111.46875 C 78.59375 -110.484375 77.65625 -109.257812 77.042969 -107.789062 C 76.609375 -106.761719 76.394531 -105.746094 76.394531 -104.738281 C 76.394531 -103.902344 76.492188 -103.15625 76.683594 -102.496094 C 76.710938 -102.414062 76.730469 -102.347656 76.746094 -102.304688 C 76.734375 -102.339844 76.710938 -102.390625 76.679688 -102.464844 C 76.394531 -103.105469 75.902344 -104.019531 75.195312 -105.207031 L 61.3125 -129.113281 L 61.3125 -143.960938 L 65.542969 -147.445312 C 70.558594 -151.574219 76.542969 -154.738281 83.5 -156.929688 C 90.152344 -159.023438 97.027344 -160.074219 104.113281 -160.074219 C 115.828125 -160.074219 125.546875 -157.796875 133.265625 -153.246094 C 138.613281 -150.015625 142.648438 -145.824219 145.371094 -140.679688 C 147.988281 -135.726562 149.300781 -130.082031 149.300781 -123.734375 L 149.300781 -16.332031 C 149.300781 -10.765625 147.890625 -5.835938 145.070312 -1.539062 C 142.332031 2.636719 138.433594 5.925781 133.375 8.332031 C 126.582031 11.730469 117.851562 13.429688 107.175781 13.429688 C 101.390625 13.429688 95.75 12.800781 90.25 11.550781 C 84.316406 10.199219 79.46875 8.339844 75.703125 5.976562 L 73.980469 4.894531 L 72.730469 3.289062 C 67.101562 -3.921875 61.535156 -11.976562 56.019531 -20.875 L 44.367188 -40.296875 L 54.324219 -46.273438 L 55.914062 -34.769531 C 56.460938 -34.84375 57.035156 -35.015625 57.636719 -35.285156 C 58.648438 -35.738281 59.550781 -36.386719 60.339844 -37.234375 C 61.203125 -38.15625 61.832031 -39.203125 62.234375 -40.375 C 62.511719 -41.1875 62.648438 -41.984375 62.648438 -42.757812 C 62.648438 -43.546875 62.5625 -44.242188 62.386719 -44.839844 C 62.375 -44.878906 62.363281 -44.914062 62.355469 -44.941406 C 62.378906 -44.875 62.417969 -44.789062 62.464844 -44.683594 C 62.816406 -43.890625 63.417969 -42.792969 64.265625 -41.390625 L 80.117188 -15.777344 L 80.117188 -0.144531 L 74.808594 3.289062 C 64.117188 10.199219 52.128906 13.65625 38.84375 13.65625 C 25.570312 13.65625 14.859375 11.039062 6.707031 5.800781 C 1.9375 2.738281 -1.703125 -1.074219 -4.207031 -5.632812 C -6.726562 -10.210938 -7.984375 -15.324219 -7.984375 -20.980469 Z M 15.242188 -20.980469 C 15.242188 -19.304688 15.542969 -17.917969 16.144531 -16.824219 C 16.757812 -15.710938 17.796875 -14.683594 19.261719 -13.742188 C 23.589844 -10.960938 30.117188 -9.574219 38.84375 -9.574219 C 47.5625 -9.574219 55.34375 -11.789062 62.195312 -16.21875 L 68.503906 -6.464844 L 56.886719 -6.464844 L 56.886719 -12.476562 L 68.503906 -12.476562 L 58.625 -6.363281 L 44.386719 -29.378906 C 43.039062 -31.605469 41.996094 -33.550781 41.253906 -35.21875 C 40.03125 -37.953125 39.421875 -40.464844 39.421875 -42.757812 C 39.421875 -44.550781 39.699219 -46.257812 40.25 -47.875 C 40.925781 -49.851562 41.96875 -51.59375 43.378906 -53.101562 C 45.800781 -55.691406 48.921875 -57.25 52.738281 -57.777344 L 60.335938 -58.824219 L 75.765625 -33.109375 C 80.839844 -24.921875 85.929688 -17.550781 91.042969 -11 L 81.886719 -3.855469 L 88.066406 -13.6875 C 89.597656 -12.726562 92.042969 -11.863281 95.40625 -11.097656 C 99.210938 -10.230469 103.132812 -9.800781 107.175781 -9.800781 C 114.195312 -9.800781 119.601562 -10.746094 123.398438 -12.644531 C 124.539062 -13.1875 125.289062 -13.730469 125.648438 -14.28125 C 125.929688 -14.710938 126.070312 -15.394531 126.070312 -16.332031 L 126.070312 -123.734375 C 126.070312 -126.234375 125.660156 -128.261719 124.839844 -129.816406 C 124.121094 -131.171875 122.996094 -132.3125 121.464844 -133.238281 C 117.386719 -135.644531 111.605469 -136.84375 104.113281 -136.84375 C 99.40625 -136.84375 94.863281 -136.15625 90.480469 -134.773438 C 86.394531 -133.488281 83.003906 -131.734375 80.308594 -129.515625 L 72.925781 -138.480469 L 84.539062 -138.480469 L 84.539062 -132.242188 L 72.925781 -132.242188 L 82.96875 -138.074219 L 95.152344 -117.085938 C 96.335938 -115.097656 97.261719 -113.355469 97.921875 -111.863281 C 99.054688 -109.296875 99.625 -106.921875 99.625 -104.738281 C 99.625 -102.636719 99.238281 -100.664062 98.46875 -98.820312 C 97.511719 -96.539062 96.0625 -94.644531 94.117188 -93.132812 C 91.339844 -90.972656 88.207031 -89.890625 84.71875 -89.890625 L 78.152344 -89.890625 L 74.765625 -95.523438 C 65.808594 -110.425781 60.066406 -119.882812 57.539062 -123.898438 C 55.1875 -127.632812 52.589844 -131.308594 49.742188 -134.917969 L 58.863281 -142.109375 L 51.605469 -133.039062 C 50.585938 -133.855469 48.710938 -134.640625 45.980469 -135.386719 C 42.710938 -136.285156 39.179688 -136.730469 35.386719 -136.730469 C 28.378906 -136.730469 22.425781 -135.722656 17.535156 -133.699219 C 16.542969 -133.289062 15.726562 -132.886719 15.082031 -132.484375 C 14.714844 -132.257812 14.472656 -132.082031 14.351562 -131.957031 C 14.527344 -132.140625 14.695312 -132.414062 14.859375 -132.785156 C 15.113281 -133.371094 15.242188 -133.984375 15.242188 -134.621094 Z M 15.242188 -20.980469 "/></g></g></g><g fill="#eeedea" fill-opacity="1"><g transform="translate(1156.494381, 175.512134)"><g><path d="M 113.234375 -88.351562 L 113.234375 -3.328125 L 109.238281 0.144531 C 104.644531 4.140625 98.734375 7.40625 91.511719 9.9375 C 84.445312 12.417969 76.097656 13.65625 66.460938 13.65625 C 55.890625 13.65625 46.742188 11.199219 39.015625 6.28125 C 34.175781 3.335938 30.4375 -0.410156 27.804688 -4.949219 C 25.117188 -9.585938 23.769531 -14.777344 23.769531 -20.527344 L 23.769531 -93.566406 L 35.386719 -93.566406 L 35.386719 -81.953125 L 2.90625 -81.953125 L -0.558594 -86.914062 C -7.398438 -96.699219 -10.820312 -107.421875 -10.820312 -119.085938 C -10.820312 -126.957031 -9.503906 -133.953125 -6.867188 -140.070312 C -4.167969 -146.335938 -0.679688 -151.332031 3.597656 -155.058594 L 6.875 -157.917969 L 134.832031 -157.917969 L 138.261719 -152.597656 C 141.054688 -148.261719 143.324219 -143.148438 145.074219 -137.246094 C 146.832031 -131.332031 147.710938 -125.425781 147.710938 -119.539062 C 147.710938 -107.554688 144.699219 -98.351562 138.675781 -91.921875 C 135.523438 -88.558594 131.820312 -86.03125 127.5625 -84.34375 C 123.539062 -82.75 119.128906 -81.953125 114.320312 -81.953125 L 81.089844 -81.953125 L 81.089844 -93.566406 L 91.765625 -88.992188 C 92.164062 -89.921875 92.363281 -90.882812 92.363281 -91.867188 C 92.363281 -94.09375 91.605469 -96.078125 90.085938 -97.8125 C 88.980469 -99.078125 87.726562 -99.910156 86.324219 -100.3125 L 86.652344 -100.210938 C 86.511719 -100.253906 86.398438 -100.289062 86.304688 -100.308594 C 86.335938 -100.300781 86.394531 -100.292969 86.480469 -100.277344 C 86.839844 -100.222656 87.316406 -100.175781 87.90625 -100.128906 C 89.398438 -100.019531 91.359375 -99.964844 93.792969 -99.964844 L 113.234375 -99.964844 Z M 90.003906 -88.351562 L 101.621094 -88.351562 L 101.621094 -76.734375 L 93.792969 -76.734375 C 90.785156 -76.734375 88.246094 -76.8125 86.183594 -76.964844 C 83.5 -77.167969 81.308594 -77.535156 79.613281 -78.078125 L 83.132812 -89.144531 L 79.941406 -77.976562 C 76.953125 -78.832031 74.507812 -80.34375 72.605469 -82.515625 C 70.292969 -85.160156 69.136719 -88.277344 69.136719 -91.867188 C 69.136719 -94.058594 69.5625 -96.152344 70.417969 -98.140625 L 73.433594 -105.179688 L 114.320312 -105.179688 C 116.167969 -105.179688 117.730469 -105.433594 119 -105.9375 C 120.035156 -106.347656 120.945312 -106.96875 121.722656 -107.800781 C 122.445312 -108.574219 123.039062 -109.726562 123.496094 -111.261719 C 124.15625 -113.453125 124.484375 -116.214844 124.484375 -119.539062 C 124.484375 -123.175781 123.925781 -126.875 122.808594 -130.636719 C 121.6875 -134.414062 120.328125 -137.539062 118.734375 -140.011719 L 128.5 -146.304688 L 128.5 -134.691406 L 11.226562 -134.691406 L 11.226562 -146.304688 L 18.859375 -137.550781 C 17.238281 -136.136719 15.773438 -133.910156 14.464844 -130.878906 C 13.09375 -127.695312 12.40625 -123.761719 12.40625 -119.085938 C 12.40625 -112.296875 14.429688 -106.011719 18.480469 -100.222656 L 8.960938 -93.566406 L 8.960938 -105.179688 L 47 -105.179688 L 47 -20.527344 C 47 -18.945312 47.300781 -17.636719 47.898438 -16.601562 C 48.554688 -15.46875 49.75 -14.375 51.488281 -13.3125 C 55.40625 -10.820312 60.398438 -9.574219 66.460938 -9.574219 C 73.460938 -9.574219 79.25 -10.375 83.828125 -11.980469 C 88.25 -13.53125 91.640625 -15.332031 94 -17.382812 L 101.621094 -8.621094 L 90.003906 -8.621094 Z M 90.003906 -88.351562 "/></g></g></g><g fill="#004aad" fill-opacity="1"><g transform="translate(14.562775, 175.512134)"><g><path d="M 128.375 2.046875 C 118.019531 2.046875 109.894531 0.339844 104 -3.0625 C 97.644531 -6.613281 94.203125 -11.640625 93.671875 -18.140625 L 92.65625 -28.8125 C 99.613281 -30.46875 105.472656 -34.773438 110.234375 -41.734375 C 111.515625 -43.703125 112.15625 -45.40625 112.15625 -46.84375 C 112.15625 -48.800781 111.175781 -49.78125 109.21875 -49.78125 L 108.875 -49.78125 C 108.800781 -49.707031 108.648438 -49.671875 108.421875 -49.671875 C 103.128906 -38.554688 94.546875 -33 82.671875 -33 C 76.628906 -33 71.46875 -34.320312 67.1875 -36.96875 C 62.914062 -39.613281 59.003906 -44.1875 55.453125 -50.6875 L 54.78125 -50.6875 C 52.738281 -50.6875 51.71875 -49.820312 51.71875 -48.09375 C 51.71875 -46.875 52.171875 -45.507812 53.078125 -44 C 56.097656 -38.9375 59.878906 -34.96875 64.421875 -32.09375 C 67.972656 -29.675781 71.710938 -28.238281 75.640625 -27.78125 L 74.734375 -6.34375 C 70.203125 -3.394531 65.421875 -1.257812 60.390625 0.0625 C 55.359375 1.382812 48.210938 2.046875 38.953125 2.046875 C 29.691406 2.046875 21.429688 0.226562 14.171875 -3.40625 C 5.253906 -7.863281 0.796875 -14.0625 0.796875 -22 C 0.796875 -31.90625 2.757812 -56.363281 6.6875 -95.375 C 8.800781 -115.71875 10.503906 -129.929688 11.796875 -138.015625 C 19.578125 -144.972656 31.066406 -148.453125 46.265625 -148.453125 C 57.304688 -148.453125 66.457031 -146.410156 73.71875 -142.328125 L 79.953125 -121.46875 L 75.984375 -104.796875 C 75.679688 -103.660156 75.53125 -102.5625 75.53125 -101.5 C 75.53125 -98.851562 77.039062 -97.492188 80.0625 -97.421875 L 90.84375 -142.21875 C 93.9375 -143.882812 97.976562 -145.335938 102.96875 -146.578125 C 107.96875 -147.828125 113.414062 -148.453125 119.3125 -148.453125 C 130.34375 -148.453125 138.523438 -146.582031 143.859375 -142.84375 C 149.191406 -139.101562 152.347656 -132.804688 153.328125 -123.953125 C 153.554688 -122.296875 153.898438 -119.535156 154.359375 -115.671875 C 161.234375 -56.546875 164.671875 -21.734375 164.671875 -11.234375 C 156.273438 -2.378906 144.175781 2.046875 128.375 2.046875 Z M 128.375 2.046875 "/></g></g></g><g fill="#004aad" fill-opacity="1"><g transform="translate(178.378821, 175.512134)"><g><path d="M 69.859375 -125.765625 L 69.859375 -8.625 C 66.378906 -5.59375 61.726562 -3.054688 55.90625 -1.015625 C 50.082031 1.023438 43.015625 2.046875 34.703125 2.046875 C 26.390625 2.046875 19.320312 0.191406 13.5 -3.515625 C 6.914062 -7.523438 3.625 -13.195312 3.625 -20.53125 L 3.625 -137.6875 C 7.101562 -140.707031 11.753906 -143.238281 17.578125 -145.28125 C 23.398438 -147.320312 30.429688 -148.34375 38.671875 -148.34375 C 46.910156 -148.34375 54.054688 -146.523438 60.109375 -142.890625 C 66.609375 -138.734375 69.859375 -133.023438 69.859375 -125.765625 Z M 69.859375 -125.765625 "/></g></g></g><g fill="#004aad" fill-opacity="1"><g transform="translate(250.217114, 175.512134)"><g><path d="M 3.625 -20.984375 L 3.625 -134.625 C 3.625 -138.550781 6.78125 -141.816406 13.09375 -144.421875 C 19.40625 -147.035156 26.835938 -148.34375 35.390625 -148.34375 C 40.222656 -148.34375 44.773438 -147.753906 49.046875 -146.578125 C 53.316406 -145.410156 56.585938 -143.921875 58.859375 -142.109375 C 61.960938 -138.171875 64.796875 -134.160156 67.359375 -130.078125 C 69.929688 -125.992188 75.71875 -116.46875 84.71875 -101.5 C 85.550781 -101.5 86.304688 -101.765625 86.984375 -102.296875 C 87.660156 -102.828125 88 -103.640625 88 -104.734375 C 88 -105.828125 87.054688 -107.960938 85.171875 -111.140625 L 72.921875 -132.234375 L 72.921875 -138.46875 C 76.773438 -141.644531 81.460938 -144.101562 86.984375 -145.84375 C 92.503906 -147.582031 98.210938 -148.453125 104.109375 -148.453125 C 113.710938 -148.453125 121.460938 -146.710938 127.359375 -143.234375 C 134.242188 -139.078125 137.6875 -132.578125 137.6875 -123.734375 L 137.6875 -16.328125 C 137.6875 -9.828125 134.582031 -5.101562 128.375 -2.15625 C 123.082031 0.488281 116.015625 1.8125 107.171875 1.8125 C 102.253906 1.8125 97.472656 1.28125 92.828125 0.21875 C 88.179688 -0.832031 84.53125 -2.191406 81.875 -3.859375 C 76.507812 -10.734375 71.179688 -18.441406 65.890625 -26.984375 L 54.328125 -46.265625 C 52.128906 -45.960938 51.03125 -44.789062 51.03125 -42.75 C 51.03125 -41.46875 52.128906 -39.015625 54.328125 -35.390625 L 68.5 -12.46875 L 68.5 -6.46875 C 59.726562 -0.789062 49.84375 2.046875 38.84375 2.046875 C 27.84375 2.046875 19.222656 0.0390625 12.984375 -3.96875 C 6.742188 -7.976562 3.625 -13.648438 3.625 -20.984375 Z M 3.625 -20.984375 "/></g></g></g><g fill="#004aad" fill-opacity="1"><g transform="translate(389.876232, 175.512134)"><g><path d="M 72.25 -78.25 C 72.25 -85.8125 71.90625 -91.007812 71.21875 -93.84375 C 70.539062 -96.675781 69.296875 -98.09375 67.484375 -98.09375 C 66.347656 -98.09375 65.328125 -97.71875 64.421875 -96.96875 C 64.566406 -95.601562 64.789062 -93.785156 65.09375 -91.515625 C 65.394531 -89.253906 65.546875 -84.414062 65.546875 -77 L 65.546875 -69.640625 C 65.546875 -64.492188 65.429688 -60.75 65.203125 -58.40625 C 64.984375 -56.0625 64.796875 -54.054688 64.640625 -52.390625 C 64.566406 -51.484375 64.492188 -50.578125 64.421875 -49.671875 C 65.328125 -48.921875 66.347656 -48.546875 67.484375 -48.546875 C 69.296875 -48.546875 70.539062 -49.960938 71.21875 -52.796875 C 71.90625 -55.628906 72.25 -60.828125 72.25 -68.390625 Z M 29.9375 0.109375 C 21.550781 0.109375 15.066406 -2.117188 10.484375 -6.578125 C 5.910156 -11.035156 3.625 -17.765625 3.625 -26.765625 L 3.625 -128.828125 C 3.625 -134.578125 9.390625 -139.4375 20.921875 -143.40625 C 32.453125 -147.375 45.328125 -149.359375 59.546875 -149.359375 C 84.566406 -149.359375 104.109375 -143.3125 118.171875 -131.21875 C 133.296875 -118.207031 140.859375 -98.8125 140.859375 -73.03125 C 140.859375 -49.820312 133.539062 -31.828125 118.90625 -19.046875 C 104.28125 -6.273438 84.191406 0.109375 58.640625 0.109375 Z M 29.9375 0.109375 "/></g></g></g><g fill="#004aad" fill-opacity="1"><g transform="translate(531.576805, 175.512134)"><g><path d="M 64.640625 -41.28125 C 67.140625 -41.738281 68.390625 -43.003906 68.390625 -45.078125 C 68.390625 -47.160156 67.726562 -49.503906 66.40625 -52.109375 C 65.082031 -54.722656 63.132812 -57.203125 60.5625 -59.546875 C 53.832031 -65.585938 44.722656 -68.609375 33.234375 -68.609375 C 27.554688 -68.609375 22.265625 -67.664062 17.359375 -65.78125 C 12.140625 -68.425781 7.976562 -72.617188 4.875 -78.359375 C 1.78125 -84.109375 0.234375 -90.3125 0.234375 -96.96875 C 0.234375 -114.351562 7.488281 -127.773438 22 -137.234375 C 34.476562 -145.316406 49.863281 -149.359375 68.15625 -149.359375 C 81.769531 -149.359375 93.222656 -147.898438 102.515625 -144.984375 C 111.816406 -142.078125 119.414062 -138.359375 125.3125 -133.828125 C 127.050781 -128.835938 127.921875 -123.65625 127.921875 -118.28125 C 127.921875 -112.914062 127.203125 -108.039062 125.765625 -103.65625 C 124.335938 -99.269531 122.257812 -95.753906 119.53125 -93.109375 C 116.957031 -95.003906 112.304688 -96.929688 105.578125 -98.890625 C 98.847656 -100.859375 92.722656 -101.84375 87.203125 -101.84375 C 81.691406 -101.84375 78.007812 -101.5 76.15625 -100.8125 C 74.300781 -100.132812 73.375 -99.078125 73.375 -97.640625 C 73.375 -96.960938 73.488281 -96.320312 73.71875 -95.71875 C 76.363281 -96.394531 79.765625 -96.734375 83.921875 -96.734375 C 98.671875 -96.734375 110.691406 -93.257812 119.984375 -86.3125 C 130.953125 -77.988281 136.4375 -65.507812 136.4375 -48.875 C 136.4375 -34.207031 130.5 -22.035156 118.625 -12.359375 C 105.769531 -2.003906 88.492188 3.171875 66.796875 3.171875 C 54.847656 3.171875 44.488281 2.28125 35.71875 0.5 C 26.945312 -1.269531 18.40625 -4.382812 10.09375 -8.84375 C 4.425781 -17.082031 1.59375 -25.453125 1.59375 -33.953125 C 1.59375 -42.460938 4.5 -49.515625 10.3125 -55.109375 C 16.132812 -60.710938 23.300781 -63.515625 31.8125 -63.515625 C 40.320312 -63.515625 47.273438 -61.773438 52.671875 -58.296875 C 58.078125 -54.816406 62.066406 -49.144531 64.640625 -41.28125 Z M 64.640625 -41.28125 "/></g></g></g><g fill="#004aad" fill-opacity="1"><g transform="translate(667.153116, 175.512134)"><g><path d="M 67.03125 -76.09375 C 67.332031 -75.875 68.203125 -75.765625 69.640625 -75.765625 C 71.078125 -75.765625 72.171875 -76.328125 72.921875 -77.453125 C 73.679688 -78.585938 74.0625 -80.441406 74.0625 -83.015625 L 74.0625 -91.640625 C 74.0625 -94.359375 73.738281 -96.300781 73.09375 -97.46875 C 72.445312 -98.644531 71.382812 -99.234375 69.90625 -99.234375 C 68.4375 -99.234375 67.4375 -99.082031 66.90625 -98.78125 C 66.988281 -98.40625 67.03125 -97.765625 67.03125 -96.859375 Z M 69.859375 -24.84375 L 69.859375 -7.484375 C 66.535156 -4.679688 61.847656 -2.390625 55.796875 -0.609375 C 49.742188 1.160156 43.429688 2.046875 36.859375 2.046875 C 27.484375 2.046875 19.8125 0.226562 13.84375 -3.40625 C 7.03125 -7.5625 3.625 -13.570312 3.625 -21.4375 L 3.625 -129.171875 C 3.625 -131.585938 5.269531 -134.003906 8.5625 -136.421875 C 11.851562 -138.847656 16.410156 -141.046875 22.234375 -143.015625 C 34.703125 -147.242188 48.953125 -149.359375 64.984375 -149.359375 C 87.140625 -149.359375 104.796875 -143.835938 117.953125 -132.796875 C 131.109375 -121.765625 137.6875 -106.925781 137.6875 -88.28125 C 137.6875 -69.644531 131.75 -55.148438 119.875 -44.796875 C 108.457031 -34.960938 92.617188 -30.046875 72.359375 -30.046875 C 67.742188 -30.046875 62.804688 -30.59375 57.546875 -31.6875 C 52.296875 -32.789062 48.765625 -33.757812 46.953125 -34.59375 C 46.347656 -33.988281 46.046875 -33.15625 46.046875 -32.09375 C 46.046875 -28.238281 53.984375 -25.820312 69.859375 -24.84375 Z M 69.859375 -24.84375 "/></g></g></g><g fill="#004aad" fill-opacity="1"><g transform="translate(803.183026, 175.512134)"><g><path d="M 67.03125 -80.640625 C 67.332031 -80.410156 68.203125 -80.296875 69.640625 -80.296875 C 71.078125 -80.296875 72.171875 -80.863281 72.921875 -82 C 73.679688 -83.132812 74.0625 -84.984375 74.0625 -87.546875 L 74.0625 -91.640625 C 74.0625 -94.359375 73.738281 -96.300781 73.09375 -97.46875 C 72.445312 -98.644531 71.382812 -99.234375 69.90625 -99.234375 C 68.4375 -99.234375 67.4375 -99.082031 66.90625 -98.78125 C 66.988281 -98.40625 67.03125 -97.765625 67.03125 -96.859375 Z M 125.546875 -54.78125 L 145.171875 -34.703125 C 143.804688 -22.910156 140.078125 -13.835938 133.984375 -7.484375 C 127.898438 -1.128906 119.492188 2.046875 108.765625 2.046875 C 100.671875 2.046875 93.640625 0.113281 87.671875 -3.75 C 80.035156 -8.582031 74.328125 -16.289062 70.546875 -26.875 L 66.453125 -38 C 63.285156 -38.070312 59.28125 -38.484375 54.4375 -39.234375 C 53.832031 -38.628906 53.53125 -37.800781 53.53125 -36.75 C 53.53125 -34.707031 56.59375 -33.492188 62.71875 -33.109375 L 69.1875 -16.78125 L 69.1875 -7.140625 C 60.488281 -1.015625 49.332031 2.046875 35.71875 2.046875 C 25.96875 2.046875 18.179688 0.0390625 12.359375 -3.96875 C 6.535156 -7.976562 3.625 -13.800781 3.625 -21.4375 L 3.625 -129.171875 C 3.625 -132.503906 6.6875 -135.738281 12.8125 -138.875 C 18.9375 -142.007812 26.953125 -144.539062 36.859375 -146.46875 C 46.765625 -148.394531 56.671875 -149.359375 66.578125 -149.359375 C 89.253906 -149.359375 106.984375 -144.707031 119.765625 -135.40625 C 133.222656 -125.65625 139.953125 -111.9375 139.953125 -94.25 C 139.953125 -84.113281 137.097656 -75.4375 131.390625 -68.21875 C 125.679688 -61 118.476562 -55.988281 109.78125 -53.1875 C 109.78125 -50.769531 111.234375 -49.5625 114.140625 -49.5625 C 117.054688 -49.5625 120.859375 -51.300781 125.546875 -54.78125 Z M 125.546875 -54.78125 "/></g></g></g><g fill="#004aad" fill-opacity="1"><g transform="translate(946.131099, 175.512134)"><g><path d="M 69.859375 -125.765625 L 69.859375 -8.625 C 66.378906 -5.59375 61.726562 -3.054688 55.90625 -1.015625 C 50.082031 1.023438 43.015625 2.046875 34.703125 2.046875 C 26.390625 2.046875 19.320312 0.191406 13.5 -3.515625 C 6.914062 -7.523438 3.625 -13.195312 3.625 -20.53125 L 3.625 -137.6875 C 7.101562 -140.707031 11.753906 -143.238281 17.578125 -145.28125 C 23.398438 -147.320312 30.429688 -148.34375 38.671875 -148.34375 C 46.910156 -148.34375 54.054688 -146.523438 60.109375 -142.890625 C 66.609375 -138.734375 69.859375 -133.023438 69.859375 -125.765625 Z M 69.859375 -125.765625 "/></g></g></g><g fill="#004aad" fill-opacity="1"><g transform="translate(1017.96947, 175.512134)"><g><path d="M 3.625 -20.984375 L 3.625 -134.625 C 3.625 -138.550781 6.78125 -141.816406 13.09375 -144.421875 C 19.40625 -147.035156 26.835938 -148.34375 35.390625 -148.34375 C 40.222656 -148.34375 44.773438 -147.753906 49.046875 -146.578125 C 53.316406 -145.410156 56.585938 -143.921875 58.859375 -142.109375 C 61.960938 -138.171875 64.796875 -134.160156 67.359375 -130.078125 C 69.929688 -125.992188 75.71875 -116.46875 84.71875 -101.5 C 85.550781 -101.5 86.304688 -101.765625 86.984375 -102.296875 C 87.660156 -102.828125 88 -103.640625 88 -104.734375 C 88 -105.828125 87.054688 -107.960938 85.171875 -111.140625 L 72.921875 -132.234375 L 72.921875 -138.46875 C 76.773438 -141.644531 81.460938 -144.101562 86.984375 -145.84375 C 92.503906 -147.582031 98.210938 -148.453125 104.109375 -148.453125 C 113.710938 -148.453125 121.460938 -146.710938 127.359375 -143.234375 C 134.242188 -139.078125 137.6875 -132.578125 137.6875 -123.734375 L 137.6875 -16.328125 C 137.6875 -9.828125 134.582031 -5.101562 128.375 -2.15625 C 123.082031 0.488281 116.015625 1.8125 107.171875 1.8125 C 102.253906 1.8125 97.472656 1.28125 92.828125 0.21875 C 88.179688 -0.832031 84.53125 -2.191406 81.875 -3.859375 C 76.507812 -10.734375 71.179688 -18.441406 65.890625 -26.984375 L 54.328125 -46.265625 C 52.128906 -45.960938 51.03125 -44.789062 51.03125 -42.75 C 51.03125 -41.46875 52.128906 -39.015625 54.328125 -35.390625 L 68.5 -12.46875 L 68.5 -6.46875 C 59.726562 -0.789062 49.84375 2.046875 38.84375 2.046875 C 27.84375 2.046875 19.222656 0.0390625 12.984375 -3.96875 C 6.742188 -7.976562 3.625 -13.648438 3.625 -20.984375 Z M 3.625 -20.984375 "/></g></g></g><g fill="#004aad" fill-opacity="1"><g transform="translate(1156.494381, 175.512134)"><g><path d="M 101.609375 -88.34375 L 101.609375 -8.625 C 98.140625 -5.59375 93.492188 -3.054688 87.671875 -1.015625 C 81.847656 1.023438 74.773438 2.046875 66.453125 2.046875 C 58.140625 2.046875 51.070312 0.191406 45.25 -3.515625 C 38.675781 -7.523438 35.390625 -13.195312 35.390625 -20.53125 L 35.390625 -93.5625 L 8.953125 -93.5625 C 3.515625 -101.351562 0.796875 -109.859375 0.796875 -119.078125 C 0.796875 -125.359375 1.796875 -130.820312 3.796875 -135.46875 C 5.796875 -140.113281 8.273438 -143.722656 11.234375 -146.296875 L 128.5 -146.296875 C 130.6875 -142.898438 132.5 -138.78125 133.9375 -133.9375 C 135.375 -129.101562 136.09375 -124.300781 136.09375 -119.53125 C 136.09375 -110.613281 134.125 -104.054688 130.1875 -99.859375 C 126.257812 -95.660156 120.96875 -93.5625 114.3125 -93.5625 L 81.09375 -93.5625 C 80.863281 -93.03125 80.75 -92.460938 80.75 -91.859375 C 80.75 -90.503906 81.539062 -89.597656 83.125 -89.140625 C 84.789062 -88.609375 88.347656 -88.34375 93.796875 -88.34375 Z M 101.609375 -88.34375 "/></g></g></g></g></g></svg>